<?xml version="1.0" encoding="iso-8859-1"?>
<!-- Generator: Adobe Illustrator 19.0.0, SVG Export Plug-In . SVG Version: 6.00 Build 0)  -->
<svg version="1.1" id="Layer_1" xmlns="http://www.w3.org/2000/svg" xmlns:xlink="http://www.w3.org/1999/xlink" x="0px" y="0px"
	 viewBox="0 0 496.2 496.2" style="enable-background:new 0 0 496.2 496.2;" xml:space="preserve">
<path style="fill:#334D5C;" d="M496.2,248.1C496.2,111.1,385.1,0,248.1,0S0,111.1,0,248.1s111.1,248.1,248.1,248.1
	S496.2,385.1,496.2,248.1z"/>
<path style="fill:#D69D76;" d="M296.4,421l-118-13l-38.3-120.9l25.2-33.7l-39.1-136.5c-5.6-19.3,1.7-36,17.8-40.6
	c2.6-0.8,5.3-1.1,7.9-1.1c12.5,0,23.7,8.4,27.3,20.5l23.1,80.6c3.7-13,13.4-21.4,26.2-21.6h0.5c10.7,0,20.3,6.1,25.1,15.2
	c4.6-3.9,10.4-6,16.7-6.1h0.5c15.4,0,28.1,12.5,28.4,27.9l0.1,4.4l16.8-79.6c3.1-12.7,14.5-21.6,27.5-21.6c2.3,0,4.6,0.3,6.9,0.8
	c16.2,4,24.2,20.4,19.4,39.8l-37.1,175.6L296.4,421z"/>
<g>
	<path style="fill:#FBC096;" d="M233.4,302.4c3.6,12.4-3.5,25.5-16,29.1l0,0c-12.4,3.6-25.5-3.5-27.5-10.5L131,115.7
		c-5.2-17.9,2-30.9,14.4-34.5l0,0c12.5-3.6,25.5,3.5,29.1,16L233.4,302.4z"/>
	<path style="fill:#FBC096;" d="M349.9,100.6c-12.6-3.1-25.3,4.5-28.4,17.1l-30.6,145.1l-50.5,7l51.9,144.9L328.7,310l37-175.3
		C370.1,116.4,362.4,103.7,349.9,100.6z"/>
</g>
<g>
	<path style="fill:#D69D76;" d="M297.2,246.3c0.2,13-10.1,23.7-23.1,23.9l0,0c-13,0.2-23.7-10.1-23.8-17.4l-1.7-55.2
		c-0.3-18.6,10-29.3,23-29.5l0,0c13-0.2,23.7,10.1,23.9,23.1L297.2,246.3z"/>
	<path style="fill:#D69D76;" d="M273.8,275.1c-15.4,0-28.1-12.2-28.3-22.2l-1.7-55.1c-0.3-20.1,11.1-34.3,27.8-34.6h0.5
		c15.4,0,28.1,12.5,28.4,27.9l1.7,55.1c0.1,7.7-2.7,14.8-8,20.3s-12.3,8.5-19.9,8.7L273.8,275.1z"/>
</g>
<g>
	<path style="fill:#FBC096;" d="M297.2,246.3c0.2,13-10.1,23.7-23.1,23.9l0,0c-13,0.2-23.7-10.1-23.8-17.4l-1.7-55.2
		c-0.3-18.6,10-29.3,23-29.5l0,0c13-0.2,23.7,10.1,23.9,23.1L297.2,246.3z"/>
	<path style="fill:#FBC096;" d="M259.3,256.1c-0.9-12.3-11.5-22-29.5-21.7l-46.5,7l-37.7,46.5l37.8,114l108.8,12.6l-32.8-139.2
		L259.3,256.1z"/>
	<path style="fill:#FBC096;" d="M254.2,255.6c0.2,13-10.1,23.7-23.1,23.9l0,0c-13,0.2-23.7-10.1-23.8-17.4l-1.7-72.1
		c-0.3-18.6,10-29.3,23-29.5l0,0c13-0.2,23.7,10.1,23.9,23.1L254.2,255.6z"/>
</g>
<path style="fill:#D69D76;" d="M251.7,254.6C251.7,254.6,251.6,254.6,251.7,254.6c-1.6,0-2.8-1.3-2.7-2.8l2.2-78
	c0-1.5,1.3-2.7,2.8-2.7s2.7,1.3,2.7,2.8l-2.2,78C254.4,253.5,253.2,254.6,251.7,254.6z"/>
<path style="fill:#FBC096;" d="M229.8,234.5l-27.1,2.8c-7.3,0.1-17.6,10.8-17.4,23.8c0.2,13,10.9,23.3,23.9,23.1l27.1-2.8
	c13-0.2,23.3-10.9,23.1-23.9C259.2,244.5,248.5,234.2,229.8,234.5z"/>
<path style="fill:#D69D76;" d="M242.6,285.5c5.2-1.2,9.9-3.9,13.7-7.9c5.3-5.5,8.1-12.6,8-20.2c-0.3-16.4-14.1-27.8-33.7-27.8
	c-0.3,0-0.6,0-0.9,0c-0.1,0-0.3,0-0.4,0l-19.2,2.1l-4.6-46.1c-0.2-1.5-1.5-2.6-3-2.4c-1.5,0.2-2.6,1.5-2.4,3l4.6,46.1l-24,2.6
	l-27.9,35.2l4,3.2l29.5-34.1l43.6-4.6c18.6-0.3,29.3,10,29.5,23c0.2,12.6-9.5,23-22,23.8c-0.4-0.3-0.7-0.5-1.1-0.8
	c-19.2-12.6-40.1-7.7-41-7.5c-1.5,0.4-2.4,1.8-2,3.3s1.8,2.4,3.3,2c0.2,0,19.4-4.6,36.7,6.8c13.2,8.7,21.8,24.3,25.6,46.4
	c0.2,1.3,1.4,2.3,2.7,2.3c0.2,0,0.3,0,0.5,0c1.5-0.3,2.5-1.7,2.2-3.2C260.8,310.6,253.6,295.5,242.6,285.5z"/>
<g>
</g>
<g>
</g>
<g>
</g>
<g>
</g>
<g>
</g>
<g>
</g>
<g>
</g>
<g>
</g>
<g>
</g>
<g>
</g>
<g>
</g>
<g>
</g>
<g>
</g>
<g>
</g>
<g>
</g>
</svg>
